<?xml version="1.0" standalone="no"?>
<!DOCTYPE svg PUBLIC "-//W3C//DTD SVG 20010904//EN"
 "http://www.w3.org/TR/2001/REC-SVG-20010904/DTD/svg10.dtd">
<svg version="1.0" xmlns="http://www.w3.org/2000/svg"
 width="600.000000pt" height="600.000000pt" viewBox="0 0 600.000000 600.000000"
 preserveAspectRatio="xMidYMid meet">
<metadata>
Created by potrace 1.14, written by Peter Selinger 2001-2017
</metadata>
<g transform="translate(0.000000,600.000000) scale(0.100000,-0.100000)"
fill="#000000" stroke="none">
<path d="M0 3000 l0 -3000 3000 0 3000 0 0 3000 0 3000 -3000 0 -3000 0 0
-3000z m2788 643 l2 -213 -773 -2 -773 -3 -49 -26 c-89 -45 -124 -154 -124
-384 0 -248 71 -401 204 -434 29 -7 218 -11 565 -11 l521 0 -3 108 -3 107
-372 3 -373 2 0 210 0 210 590 0 590 0 -2 -532 -3 -533 -840 0 c-839 0 -840 0
-925 22 -188 50 -314 149 -388 304 -74 155 -97 300 -89 568 4 143 10 205 26
269 81 320 293 503 626 541 39 5 412 8 830 7 l760 -1 3 -212z m2112 193 c285
-67 458 -240 533 -533 20 -79 22 -111 22 -328 -1 -208 -4 -253 -22 -338 -61
-277 -209 -425 -478 -478 -56 -11 -234 -14 -905 -14 l-835 0 -3 845 c-1 465 0
851 3 858 4 11 154 12 807 9 723 -3 810 -5 878 -21z"/>
<path d="M3640 3000 l0 -431 533 3 c559 4 570 5 638 51 88 59 114 145 114 377
0 256 -31 342 -144 397 l-56 28 -542 3 -543 3 0 -431z"/>
</g>
</svg>
